<mxfile host="app.diagrams.net" agent="Mozilla/5.0 (Windows NT 10.0; Win64; x64; rv:130.0) Gecko/20100101 Firefox/130.0" version="24.7.14">
  <diagram name="Page-1" id="nsxdXsHPMkuc5sDnX4gc">
    <mxGraphModel dx="792" dy="773" grid="1" gridSize="10" guides="1" tooltips="1" connect="1" arrows="1" fold="1" page="1" pageScale="1" pageWidth="850" pageHeight="1100" math="0" shadow="0">
      <root>
        <mxCell id="0" />
        <mxCell id="1" parent="0" />
        <mxCell id="PgbMHVhYkzSk4JH8k8pA-12" style="edgeStyle=orthogonalEdgeStyle;rounded=0;orthogonalLoop=1;jettySize=auto;html=1;exitX=0.5;exitY=1;exitDx=0;exitDy=0;entryX=0.75;entryY=0;entryDx=0;entryDy=0;" parent="1" source="PgbMHVhYkzSk4JH8k8pA-1" target="PgbMHVhYkzSk4JH8k8pA-2" edge="1">
          <mxGeometry relative="1" as="geometry" />
        </mxCell>
        <mxCell id="PgbMHVhYkzSk4JH8k8pA-1" value="&lt;b&gt;Node:&lt;/b&gt; earthMoonOrbit" style="rounded=0;whiteSpace=wrap;html=1;" parent="1" vertex="1">
          <mxGeometry x="470" y="480" width="120" height="50" as="geometry" />
        </mxCell>
        <mxCell id="PgbMHVhYkzSk4JH8k8pA-2" value="&lt;b&gt;Node:&lt;/b&gt; root" style="rounded=0;whiteSpace=wrap;html=1;" parent="1" vertex="1">
          <mxGeometry x="300" y="590" width="120" height="50" as="geometry" />
        </mxCell>
        <mxCell id="PgbMHVhYkzSk4JH8k8pA-11" style="edgeStyle=orthogonalEdgeStyle;rounded=0;orthogonalLoop=1;jettySize=auto;html=1;exitX=0.5;exitY=1;exitDx=0;exitDy=0;entryX=0.5;entryY=0;entryDx=0;entryDy=0;" parent="1" source="PgbMHVhYkzSk4JH8k8pA-3" target="PgbMHVhYkzSk4JH8k8pA-1" edge="1">
          <mxGeometry relative="1" as="geometry" />
        </mxCell>
        <mxCell id="PgbMHVhYkzSk4JH8k8pA-3" value="&lt;div&gt;&lt;b&gt;Node:&lt;/b&gt; earthMoon&lt;/div&gt;" style="rounded=0;whiteSpace=wrap;html=1;" parent="1" vertex="1">
          <mxGeometry x="470" y="370" width="120" height="50" as="geometry" />
        </mxCell>
        <mxCell id="PgbMHVhYkzSk4JH8k8pA-10" style="edgeStyle=orthogonalEdgeStyle;rounded=0;orthogonalLoop=1;jettySize=auto;html=1;exitX=0.5;exitY=1;exitDx=0;exitDy=0;entryX=0.25;entryY=0;entryDx=0;entryDy=0;" parent="1" source="PgbMHVhYkzSk4JH8k8pA-4" target="PgbMHVhYkzSk4JH8k8pA-3" edge="1">
          <mxGeometry relative="1" as="geometry" />
        </mxCell>
        <mxCell id="PgbMHVhYkzSk4JH8k8pA-4" value="&lt;div&gt;&lt;b&gt;Node:&lt;/b&gt; earth&lt;/div&gt;" style="rounded=0;whiteSpace=wrap;html=1;" parent="1" vertex="1">
          <mxGeometry x="370" y="140" width="120" height="50" as="geometry" />
        </mxCell>
        <mxCell id="PgbMHVhYkzSk4JH8k8pA-9" style="edgeStyle=orthogonalEdgeStyle;rounded=0;orthogonalLoop=1;jettySize=auto;html=1;exitX=0.5;exitY=1;exitDx=0;exitDy=0;entryX=0.75;entryY=0;entryDx=0;entryDy=0;" parent="1" source="PgbMHVhYkzSk4JH8k8pA-5" target="PgbMHVhYkzSk4JH8k8pA-3" edge="1">
          <mxGeometry relative="1" as="geometry">
            <mxPoint x="550" y="350" as="targetPoint" />
          </mxGeometry>
        </mxCell>
        <mxCell id="PgbMHVhYkzSk4JH8k8pA-5" value="&lt;div&gt;&lt;b&gt;Node:&lt;/b&gt; moonOrbit&lt;br&gt;&lt;/div&gt;" style="rounded=0;whiteSpace=wrap;html=1;" parent="1" vertex="1">
          <mxGeometry x="540" y="250" width="120" height="50" as="geometry" />
        </mxCell>
        <mxCell id="PgbMHVhYkzSk4JH8k8pA-7" style="edgeStyle=orthogonalEdgeStyle;rounded=0;orthogonalLoop=1;jettySize=auto;html=1;exitX=0.5;exitY=1;exitDx=0;exitDy=0;entryX=0.5;entryY=0;entryDx=0;entryDy=0;" parent="1" source="PgbMHVhYkzSk4JH8k8pA-6" target="PgbMHVhYkzSk4JH8k8pA-5" edge="1">
          <mxGeometry relative="1" as="geometry" />
        </mxCell>
        <mxCell id="PgbMHVhYkzSk4JH8k8pA-6" value="&lt;div&gt;&lt;b&gt;Node:&lt;/b&gt; moon&lt;br&gt;&lt;/div&gt;" style="rounded=0;whiteSpace=wrap;html=1;" parent="1" vertex="1">
          <mxGeometry x="540" y="140" width="120" height="50" as="geometry" />
        </mxCell>
        <mxCell id="PgbMHVhYkzSk4JH8k8pA-15" style="edgeStyle=orthogonalEdgeStyle;rounded=0;orthogonalLoop=1;jettySize=auto;html=1;entryX=0.25;entryY=0;entryDx=0;entryDy=0;exitX=0.5;exitY=1;exitDx=0;exitDy=0;" parent="1" source="PgbMHVhYkzSk4JH8k8pA-13" target="PgbMHVhYkzSk4JH8k8pA-2" edge="1">
          <mxGeometry relative="1" as="geometry">
            <Array as="points">
              <mxPoint x="80" y="490" />
              <mxPoint x="330" y="490" />
            </Array>
          </mxGeometry>
        </mxCell>
        <mxCell id="PgbMHVhYkzSk4JH8k8pA-13" value="&lt;div&gt;&lt;b&gt;Node:&lt;/b&gt; sun&lt;br&gt;&lt;/div&gt;" style="rounded=0;whiteSpace=wrap;html=1;" parent="1" vertex="1">
          <mxGeometry x="20" y="140" width="120" height="50" as="geometry" />
        </mxCell>
        <mxCell id="PgbMHVhYkzSk4JH8k8pA-19" style="edgeStyle=orthogonalEdgeStyle;rounded=0;orthogonalLoop=1;jettySize=auto;html=1;exitX=0.5;exitY=1;exitDx=0;exitDy=0;entryX=0.5;entryY=0;entryDx=0;entryDy=0;" parent="1" source="PgbMHVhYkzSk4JH8k8pA-16" target="PgbMHVhYkzSk4JH8k8pA-17" edge="1">
          <mxGeometry relative="1" as="geometry" />
        </mxCell>
        <mxCell id="PgbMHVhYkzSk4JH8k8pA-16" value="&lt;div&gt;&lt;b&gt;Node:&lt;/b&gt; mercury&lt;br&gt;&lt;/div&gt;" style="rounded=0;whiteSpace=wrap;html=1;" parent="1" vertex="1">
          <mxGeometry x="190" y="140" width="120" height="50" as="geometry" />
        </mxCell>
        <mxCell id="PgbMHVhYkzSk4JH8k8pA-18" style="edgeStyle=orthogonalEdgeStyle;rounded=0;orthogonalLoop=1;jettySize=auto;html=1;exitX=0.5;exitY=1;exitDx=0;exitDy=0;entryX=0.5;entryY=0;entryDx=0;entryDy=0;" parent="1" source="PgbMHVhYkzSk4JH8k8pA-17" target="PgbMHVhYkzSk4JH8k8pA-2" edge="1">
          <mxGeometry relative="1" as="geometry">
            <mxPoint x="330" y="580" as="targetPoint" />
          </mxGeometry>
        </mxCell>
        <mxCell id="PgbMHVhYkzSk4JH8k8pA-17" value="&lt;div&gt;&lt;b&gt;Node:&lt;/b&gt; mercuryOrbit&lt;br&gt;&lt;/div&gt;" style="rounded=0;whiteSpace=wrap;html=1;" parent="1" vertex="1">
          <mxGeometry x="300" y="330" width="120" height="50" as="geometry" />
        </mxCell>
        <mxCell id="PgbMHVhYkzSk4JH8k8pA-42" style="edgeStyle=orthogonalEdgeStyle;rounded=0;orthogonalLoop=1;jettySize=auto;html=1;entryX=0.5;entryY=0;entryDx=0;entryDy=0;" parent="1" source="PgbMHVhYkzSk4JH8k8pA-20" target="PgbMHVhYkzSk4JH8k8pA-4" edge="1">
          <mxGeometry relative="1" as="geometry" />
        </mxCell>
        <mxCell id="PgbMHVhYkzSk4JH8k8pA-20" value="&lt;blockquote&gt;earthTex&lt;br&gt;&lt;/blockquote&gt;" style="swimlane;whiteSpace=wrap;html=1;startSize=30;dashed=1;dashPattern=1 2;" parent="1" vertex="1">
          <mxGeometry x="375" y="20" width="110" height="80" as="geometry" />
        </mxCell>
        <mxCell id="PgbMHVhYkzSk4JH8k8pA-21" value="[ image ]" style="text;html=1;align=center;verticalAlign=middle;resizable=0;points=[];autosize=1;strokeColor=none;fillColor=none;" parent="PgbMHVhYkzSk4JH8k8pA-20" vertex="1">
          <mxGeometry x="20" y="40" width="70" height="30" as="geometry" />
        </mxCell>
        <mxCell id="PgbMHVhYkzSk4JH8k8pA-35" style="edgeStyle=orthogonalEdgeStyle;rounded=0;orthogonalLoop=1;jettySize=auto;html=1;exitX=0;exitY=0.5;exitDx=0;exitDy=0;entryX=1;entryY=0.5;entryDx=0;entryDy=0;" parent="1" source="PgbMHVhYkzSk4JH8k8pA-23" target="PgbMHVhYkzSk4JH8k8pA-1" edge="1">
          <mxGeometry relative="1" as="geometry" />
        </mxCell>
        <mxCell id="PgbMHVhYkzSk4JH8k8pA-23" value="earthMoonOrbitTrans" style="swimlane;whiteSpace=wrap;html=1;startSize=30;dashed=1;" parent="1" vertex="1">
          <mxGeometry x="680" y="480" width="160" height="80" as="geometry" />
        </mxCell>
        <mxCell id="PgbMHVhYkzSk4JH8k8pA-37" value="[engine]" style="text;html=1;align=center;verticalAlign=middle;resizable=0;points=[];autosize=1;strokeColor=none;fillColor=none;" parent="PgbMHVhYkzSk4JH8k8pA-23" vertex="1">
          <mxGeometry x="45" y="40" width="70" height="30" as="geometry" />
        </mxCell>
        <mxCell id="PgbMHVhYkzSk4JH8k8pA-28" style="edgeStyle=orthogonalEdgeStyle;rounded=0;orthogonalLoop=1;jettySize=auto;html=1;entryX=1;entryY=0.5;entryDx=0;entryDy=0;" parent="1" source="PgbMHVhYkzSk4JH8k8pA-26" target="PgbMHVhYkzSk4JH8k8pA-3" edge="1">
          <mxGeometry relative="1" as="geometry" />
        </mxCell>
        <mxCell id="PgbMHVhYkzSk4JH8k8pA-26" value="earthMoonTrans" style="swimlane;whiteSpace=wrap;html=1;startSize=30;dashed=1;" parent="1" vertex="1">
          <mxGeometry x="680" y="355" width="160" height="80" as="geometry" />
        </mxCell>
        <mxCell id="PgbMHVhYkzSk4JH8k8pA-27" value="&lt;div&gt;translate(15, 0, 0)&lt;/div&gt;" style="text;html=1;align=center;verticalAlign=middle;resizable=0;points=[];autosize=1;strokeColor=none;fillColor=none;" parent="PgbMHVhYkzSk4JH8k8pA-26" vertex="1">
          <mxGeometry x="10" y="40" width="120" height="30" as="geometry" />
        </mxCell>
        <mxCell id="PgbMHVhYkzSk4JH8k8pA-31" style="edgeStyle=orthogonalEdgeStyle;rounded=0;orthogonalLoop=1;jettySize=auto;html=1;entryX=0.5;entryY=0;entryDx=0;entryDy=0;" parent="1" source="PgbMHVhYkzSk4JH8k8pA-29" target="PgbMHVhYkzSk4JH8k8pA-6" edge="1">
          <mxGeometry relative="1" as="geometry" />
        </mxCell>
        <mxCell id="PgbMHVhYkzSk4JH8k8pA-29" value="moonTransScale" style="swimlane;whiteSpace=wrap;html=1;startSize=30;dashed=1;" parent="1" vertex="1">
          <mxGeometry x="525" y="20" width="150" height="80" as="geometry" />
        </mxCell>
        <mxCell id="PgbMHVhYkzSk4JH8k8pA-30" value="&lt;div&gt;translate(2, 0, 0)&lt;/div&gt;&lt;div&gt;&lt;div&gt;scale(0.25, 0.25, 1)&lt;/div&gt;&lt;/div&gt;" style="text;html=1;align=center;verticalAlign=middle;resizable=0;points=[];autosize=1;strokeColor=none;fillColor=none;" parent="PgbMHVhYkzSk4JH8k8pA-29" vertex="1">
          <mxGeometry x="5" y="35" width="130" height="40" as="geometry" />
        </mxCell>
        <mxCell id="PgbMHVhYkzSk4JH8k8pA-34" style="edgeStyle=orthogonalEdgeStyle;rounded=0;orthogonalLoop=1;jettySize=auto;html=1;entryX=1;entryY=0.5;entryDx=0;entryDy=0;" parent="1" source="PgbMHVhYkzSk4JH8k8pA-32" target="PgbMHVhYkzSk4JH8k8pA-5" edge="1">
          <mxGeometry relative="1" as="geometry" />
        </mxCell>
        <mxCell id="PgbMHVhYkzSk4JH8k8pA-32" value="moonOrbitTrans" style="swimlane;whiteSpace=wrap;html=1;startSize=30;dashed=1;" parent="1" vertex="1">
          <mxGeometry x="710" y="242.5" width="130" height="65" as="geometry" />
        </mxCell>
        <mxCell id="PgbMHVhYkzSk4JH8k8pA-36" value="[engine]" style="text;html=1;align=center;verticalAlign=middle;resizable=0;points=[];autosize=1;strokeColor=none;fillColor=none;" parent="PgbMHVhYkzSk4JH8k8pA-32" vertex="1">
          <mxGeometry x="30" y="35" width="70" height="30" as="geometry" />
        </mxCell>
        <mxCell id="PgbMHVhYkzSk4JH8k8pA-41" style="edgeStyle=orthogonalEdgeStyle;rounded=0;orthogonalLoop=1;jettySize=auto;html=1;entryX=0.5;entryY=0;entryDx=0;entryDy=0;" parent="1" source="PgbMHVhYkzSk4JH8k8pA-38" target="PgbMHVhYkzSk4JH8k8pA-13" edge="1">
          <mxGeometry relative="1" as="geometry" />
        </mxCell>
        <mxCell id="PgbMHVhYkzSk4JH8k8pA-38" value="sunScale" style="swimlane;whiteSpace=wrap;html=1;startSize=30;dashed=1;" parent="1" vertex="1">
          <mxGeometry x="20" y="10" width="120" height="80" as="geometry" />
        </mxCell>
        <mxCell id="PgbMHVhYkzSk4JH8k8pA-39" value="&lt;div&gt;scale(3, 3, 1)&lt;br&gt;&lt;/div&gt;" style="text;html=1;align=center;verticalAlign=middle;resizable=0;points=[];autosize=1;strokeColor=none;fillColor=none;" parent="PgbMHVhYkzSk4JH8k8pA-38" vertex="1">
          <mxGeometry x="20" y="40" width="90" height="30" as="geometry" />
        </mxCell>
        <mxCell id="PgbMHVhYkzSk4JH8k8pA-45" style="edgeStyle=orthogonalEdgeStyle;rounded=0;orthogonalLoop=1;jettySize=auto;html=1;entryX=0;entryY=0.5;entryDx=0;entryDy=0;" parent="1" source="PgbMHVhYkzSk4JH8k8pA-43" target="PgbMHVhYkzSk4JH8k8pA-17" edge="1">
          <mxGeometry relative="1" as="geometry" />
        </mxCell>
        <mxCell id="PgbMHVhYkzSk4JH8k8pA-43" value="mercuryOrbitTrans" style="swimlane;whiteSpace=wrap;html=1;startSize=30;dashed=1;" parent="1" vertex="1">
          <mxGeometry x="120" y="322.5" width="130" height="65" as="geometry" />
        </mxCell>
        <mxCell id="PgbMHVhYkzSk4JH8k8pA-44" value="[engine]" style="text;html=1;align=center;verticalAlign=middle;resizable=0;points=[];autosize=1;strokeColor=none;fillColor=none;" parent="PgbMHVhYkzSk4JH8k8pA-43" vertex="1">
          <mxGeometry x="30" y="35" width="70" height="30" as="geometry" />
        </mxCell>
        <mxCell id="cGwP4i3cXGNt0qAE_A5_-3" style="edgeStyle=orthogonalEdgeStyle;rounded=0;orthogonalLoop=1;jettySize=auto;html=1;entryX=0.5;entryY=0;entryDx=0;entryDy=0;" edge="1" parent="1" source="cGwP4i3cXGNt0qAE_A5_-1" target="PgbMHVhYkzSk4JH8k8pA-16">
          <mxGeometry relative="1" as="geometry" />
        </mxCell>
        <mxCell id="cGwP4i3cXGNt0qAE_A5_-1" value="mercuryTrans" style="swimlane;whiteSpace=wrap;html=1;startSize=30;dashed=1;" vertex="1" parent="1">
          <mxGeometry x="175" y="10" width="150" height="80" as="geometry" />
        </mxCell>
        <mxCell id="cGwP4i3cXGNt0qAE_A5_-2" value="&lt;br&gt;&lt;div&gt;&lt;div&gt;&lt;br&gt;&lt;/div&gt;&lt;div&gt;translate(8, 0, 0)&lt;/div&gt;&lt;/div&gt;&lt;div&gt;scale(0.5, 0,5, 1)&lt;/div&gt;" style="text;html=1;align=center;verticalAlign=middle;resizable=0;points=[];autosize=1;strokeColor=none;fillColor=none;" vertex="1" parent="cGwP4i3cXGNt0qAE_A5_-1">
          <mxGeometry x="15" y="5" width="110" height="70" as="geometry" />
        </mxCell>
      </root>
    </mxGraphModel>
  </diagram>
</mxfile>
